<?xml version="1.0" encoding="utf-8"?>
<!-- Generator: Adobe Illustrator 28.1.0, SVG Export Plug-In . SVG Version: 6.00 Build 0)  -->
<svg version="1.1" id="Layer_1" xmlns="http://www.w3.org/2000/svg" xmlns:xlink="http://www.w3.org/1999/xlink" x="0px" y="0px"
	 viewBox="0 0 141.1 161.9" style="enable-background:new 0 0 141.1 161.9;" xml:space="preserve">
<style type="text/css">
	.st0{fill:#352E2D;}
	.st1{fill:#9D4A23;}
	.st2{fill:#CC6E46;}
	.st3{fill:#783718;}
	.st4{clip-path:url(#SVGID_00000117666733566734810120000004618759117256007341_);fill:#783718;}
	.st5{clip-path:url(#SVGID_00000047056028474444370060000000516729756419750562_);fill:#783718;}
	.st6{fill:#F58134;}
	.st7{fill:#FFDA82;}
	.st8{opacity:5.000000e-02;fill:#FFE6AE;}
	.st9{opacity:0.12;fill:#FFE6AE;}
	.st10{clip-path:url(#SVGID_00000099632366341441868890000015072881076910181285_);fill:#783718;}
	.st11{clip-path:url(#SVGID_00000183245710350315866640000001056879278780600706_);fill:#783718;}
	.st12{clip-path:url(#SVGID_00000039097886048350017810000016204166589715252667_);fill:#783718;}
	.st13{clip-path:url(#SVGID_00000147205036329891178630000018347804380697763499_);fill:#783718;}
	.st14{clip-path:url(#SVGID_00000044863099056173111340000005978125915361068938_);fill:#783718;}
	.st15{clip-path:url(#SVGID_00000072274011830296400340000001460538909766221203_);fill:#783718;}
	.st16{clip-path:url(#SVGID_00000136392505968371411920000013892646224028028038_);fill:#783718;}
	.st17{clip-path:url(#SVGID_00000066509136083926258700000002599510422823988356_);fill:#783718;}
	.st18{clip-path:url(#SVGID_00000178901647240141569450000001686032888547121818_);fill:#783718;}
	.st19{clip-path:url(#SVGID_00000106134374345730956840000011886191878889420444_);fill:#783718;}
	.st20{clip-path:url(#SVGID_00000053536643476990891530000013728163587150379963_);fill:#783718;}
	.st21{clip-path:url(#SVGID_00000078735555643872225350000005234823100058716036_);fill:#783718;}
	.st22{clip-path:url(#SVGID_00000077322588916753516620000013445662442415807879_);fill:#783718;}
	.st23{clip-path:url(#SVGID_00000116946252990724484060000002686546583650989696_);fill:#783718;}
	.st24{opacity:0.7;fill:#352E2D;}
	.st25{clip-path:url(#SVGID_00000061438144912895106230000014310964286818510752_);fill:#783718;}
	.st26{clip-path:url(#SVGID_00000021115129964646795150000017188509431186097564_);fill:#783718;}
	.st27{clip-path:url(#SVGID_00000149376144777493533640000002681275112145893531_);fill:#783718;}
	.st28{clip-path:url(#SVGID_00000083052666442780995270000007247327924017778612_);fill:#783718;}
	.st29{clip-path:url(#SVGID_00000182523241679193158040000013868348095882680727_);fill:#783718;}
	.st30{clip-path:url(#SVGID_00000044174602723186346900000008170642658053794450_);fill:#783718;}
	.st31{clip-path:url(#SVGID_00000000208992883909040830000017989527246106230444_);fill:#783718;}
	.st32{clip-path:url(#SVGID_00000161610880072969688790000003252009574230292647_);fill:#783718;}
	.st33{opacity:0.26;fill:#FFE6AE;}
	.st34{clip-path:url(#SVGID_00000005259656347849035000000001450930089666921096_);fill:#783718;}
	.st35{clip-path:url(#SVGID_00000038405641974720860860000006774483741384283027_);fill:#783718;}
</style>
<g>
	<g>
		<g>
			<path class="st1" d="M76.4,105.2l-2.1-14c-0.2-1.9-1.2-4.5-2.9-5.2c-0.9-0.4-4.9-0.4-5.8-0.2c-0.8,0.2-2.1,0.5-2.5,2
				c-0.2,0.8-0.4,2.1-1,5.2L60,110.1L76.4,105.2z"/>
			<path class="st2" d="M76.3,105.2c0.7,4.6-2.9,8.9-8.2,8.9c-5.3,0-8.9-4.3-8.2-8.9c0.4-2.4,1.6-4.9,3.5-6c1.3-0.7,3.1-0.7,4.7-0.7
				c1.4,0,3.1,0.1,4.2,0.7C74.5,100.3,75.9,102.6,76.3,105.2z"/>
			<polygon class="st3" points="68.5,93 67,98.5 68.1,99.9 69.3,98.5 			"/>
			<g>
				<path class="st1" d="M73.1,107.4c-0.4-2-0.8-4-1.7-5.8c-0.1-0.1-0.3-0.2-0.4-0.3c-2.4-0.9-6-0.1-7.2,2.2
					c-0.3,0.7-0.3,1.6-0.3,2.3c0.1,2.3,0.5,5.3,2.3,6.9c1.1,1,3,0.4,3.8-1c1.4-1.9,2.1-8.4-1.7-7.6c-0.2,0.1-0.4-0.3-0.1-0.4
					c0.9-0.3,2-0.1,2.6,0.7c1.6,2.3,1.3,5.5-0.1,7.8c-0.9,1.7-3.5,2.7-5.1,1.2c-2.4-2.4-2.7-5.8-2.6-8.9c0.4-3.9,5.7-5.3,8.7-3.8
					c0.3,0.2,0.6,0.5,0.8,0.9c0.7,1.9,1,3.8,1.2,5.8C73.3,107.5,73.1,107.5,73.1,107.4L73.1,107.4z"/>
			</g>
		</g>
		<g>
			<path class="st1" d="M123.5,103.3c6.5-1.6,5.1-5.3,5.1-7.2c0-5.9-3.1-9.4-9.4-8.2c-5.5,1-26.2,8-26.2,8s-14.2,4.1-18.1,5.7
				c-3,1.3-5.3,1.8-6.1,2.3l-2.3,5.2c0.6,6,1.5,6.6,5.3,6.3C83,114.5,108.8,107,123.5,103.3z"/>
			<path class="st3" d="M127.1,90.3c0.4,2.4-0.9,6-0.9,6s-11.1,3.7-15.7,4.2c-2.5,0.2-5,0.7-7.4,1.4c-5.8,1.7-17.1,4.9-25.7,6.4
				c-5-5.6-7-0.8-9.9-1.1l-0.9,2c0.6,6,1.5,6.6,5.3,6.3c11.1-1,37-8.5,51.7-12.2c6.5-1.6,5.1-5.3,5.1-7.2
				C128.6,93.7,128.1,91.7,127.1,90.3z"/>
			<path class="st2" d="M75.8,109.6c0,3.3-2.4,5.9-5.3,5.9c-2.9,0-4.7-2.6-4.7-5.9c0-1.5-0.1-2.9,0.7-3.9c1-1.2,2.4-2,4-2
				c1.5,0,2.6,0.2,3.6,1.2C75.1,106,75.8,108,75.8,109.6z"/>
			<g>
				<path class="st1" d="M67.7,109.6c-2.2-8,9.6-3.6,6.8,3.7c-0.4,1.2-1.2,2.3-2.4,3c-1.4,0.8-3.2,0-3.4-1.5
					c-0.3-1.5,0.3-4.8,2.2-4.8c0.8,0.2,0.9,1.1,1,1.7c0.1,0.3-0.4,0.4-0.5,0.1c-0.1-0.4-0.2-0.8-0.4-1.1c-0.2-0.2-0.4-0.1-0.6,0.2
					c-1.1,1.2-1.4,5.7,1.2,4.4c2.5-1.6,2.7-6,0-7.6c-0.6-0.4-1.8-0.9-2.4-0.6c-0.6,0.3-0.6,1.7-0.5,2.4
					C68.8,110,67.9,110.2,67.7,109.6L67.7,109.6z"/>
			</g>
			<polygon class="st3" points="79.7,102.6 94.2,97.1 115.6,92.4 98.9,97.5 			"/>
			<g>
				<defs>
					<path id="SVGID_00000003100904514786173260000011494031391161017519_" d="M123.5,103.3c6.5-1.6,5.1-5.3,5.1-7.2
						c0-5.9-3.1-9.4-9.4-8.2c-5.5,1-26.2,8-26.2,8s-14.2,4.1-18.1,5.7c-3,1.3-5.3,1.8-6.1,2.3l-2.3,5.2c0.6,6,1.5,6.6,5.3,6.3
						C83,114.5,108.8,107,123.5,103.3z"/>
				</defs>
				<clipPath id="SVGID_00000169555527057591350540000000742915597655775139_">
					<use xlink:href="#SVGID_00000003100904514786173260000011494031391161017519_"  style="overflow:visible;"/>
				</clipPath>
				<polygon style="clip-path:url(#SVGID_00000169555527057591350540000000742915597655775139_);fill:#783718;" points="127.4,91.1 
					116.7,94.6 126.9,93 131.7,89.6 				"/>
			</g>
		</g>
		<g>
			<path class="st1" d="M11.3,104.1c-6.5-1.6-5.1-5.3-5.1-7.2c0-5.9,3.1-9.4,9.4-8.2c5.5,1,26.2,8,26.2,8s14.2,4.1,18.1,5.7
				c3,1.3,5.3,1.8,6.1,2.3l2.3,5.2c-0.6,6-1.5,6.6-5.3,6.3C51.9,115.3,26,107.8,11.3,104.1z"/>
			<path class="st3" d="M7.7,91.1c-0.4,2.4,0.9,6,0.9,6s11.1,3.7,15.7,4.2c2.5,0.2,5,0.7,7.4,1.4c5.8,1.7,17.1,4.9,25.7,6.4
				c5-5.6,7-0.8,9.9-1.1l0.9,2c-0.6,6-1.5,6.6-5.3,6.3c-11.1-1-37-8.5-51.7-12.2c-6.5-1.6-5.1-5.3-5.1-7.2
				C6.2,94.5,6.7,92.5,7.7,91.1z"/>
			<path class="st2" d="M59,110.4c0,3.3,2.4,5.9,5.3,5.9c2.9,0,4.7-2.6,4.7-5.9c0-1.5,0.1-2.9-0.7-3.9c-1-1.2-2.4-2-4-2
				c-1.5,0-2.6,0.2-3.6,1.2C59.7,106.8,59,108.7,59,110.4z"/>
			<g>
				<path class="st1" d="M66.1,110.2c0-0.7,0-2.1-0.5-2.4c-1.7-0.3-3.6,1.3-4.1,2.9c-0.5,1.8,0.1,4.3,1.7,5.3
					c0.8,0.5,1.7,0.2,1.9-0.7c0.2-1.2,0.1-2.7-0.7-3.7c-0.7-0.7-0.9,0.4-1,0.9c0,0.1-0.2,0.2-0.3,0.2c-0.4-0.1-0.1-0.9,0-1.2
					c0.1-0.4,0.4-0.7,0.8-0.8c1.9,0,2.6,3.3,2.2,4.8c-0.2,1.6-2.1,2.3-3.4,1.5c-2.4-1.3-3.2-4.2-2.6-6.7c0.6-2.4,3.8-5.1,6.3-3.8
					c1.3,0.9,1.1,2.7,0.7,3.9C66.9,111,66.1,110.8,66.1,110.2L66.1,110.2z"/>
			</g>
			<polygon class="st3" points="55.1,103.4 40.6,97.9 19.2,93.2 35.9,98.3 			"/>
			<g>
				<defs>
					<path id="SVGID_00000031924243647149114550000008026028429767009465_" d="M11.3,104.1c-6.5-1.6-5.1-5.3-5.1-7.2
						c0-5.9,3.1-9.4,9.4-8.2c5.5,1,26.2,8,26.2,8s14.2,4.1,18.1,5.7c3,1.3,5.3,1.8,6.1,2.3l2.3,5.2c-0.6,6-1.5,6.6-5.3,6.3
						C51.9,115.3,26,107.8,11.3,104.1z"/>
				</defs>
				<clipPath id="SVGID_00000179635407950642857790000008286668855692853929_">
					<use xlink:href="#SVGID_00000031924243647149114550000008026028429767009465_"  style="overflow:visible;"/>
				</clipPath>
				<polygon style="clip-path:url(#SVGID_00000179635407950642857790000008286668855692853929_);fill:#783718;" points="7.5,91.9 
					18.1,95.3 7.9,93.8 3.1,90.3 				"/>
			</g>
		</g>
		<g>
			<path class="st1" d="M53.3,117.7c0,0-16.6-0.5-18.9-0.3L8,117.4v-16.7l22.7,0.9c0.8,0,10.7,1.2,11.5,1.3l22.7,3.7
				c2.9,0.5,5,2.9,5,5.9l0,0c0,3.2-2.6,5.9-5.8,5.9C60.5,118.5,56.1,118.4,53.3,117.7z"/>
			<path class="st3" d="M59.8,110.1c0,0-22,1.8-29,1.5c-7-0.3-13.6,0.9-20.6,0.2c-0.9-0.1-1.7-0.5-2.1-1.1v6.7l26.3-0.1
				c2.3-0.2,18.9,0.3,18.9,0.3c2.8,0.7,7.3,0.8,10.8,0.7c3.2-0.1,5.8-2.7,5.8-5.9c0-0.2,0-0.4-0.1-0.6
				C69.5,112.1,59.8,110.1,59.8,110.1z"/>
			<path class="st2" d="M11.5,109.2c0,3.1-0.1,5.9-1.4,7.5c-0.5,0.6-1.7,0.6-2,0.6c-0.5,0-2.1-0.1-2.5-1.2c-0.5-1.5-0.5-4.5-0.5-7.1
				c0-2.6,0.6-5.2,1.1-6.7c0.4-1.1,1.3-1.6,1.9-1.6c0.5,0,2,0.6,2.4,1.8C10.9,104.1,11.5,106.6,11.5,109.2z"/>
			<g>
				<path class="st1" d="M7.9,108c0.4,1.2,0.4,2.5,0.9,3.6c0,0-0.2-0.1-0.3-0.1c-0.1,0-0.1,0,0,0c1.1-1.9,1-4.9,0.4-7
					c-0.4-1.4-1.4-1.2-1.9,0.2c-0.4,1.2-0.5,2.6-0.6,3.9c0,2.2,0.3,4.9,1.4,6.7c1.5,0.1,1.9-1.6,2.1-2.9c0-0.1,0.1-0.2,0.3-0.2
					c0.1,0,0.2,0.1,0.2,0.2c0.3,1.4-0.2,3.5-1.9,3.8c-2,0.6-2.3-2.1-2.5-3.5c-0.2-2.4-1.1-9.4,1.9-10.2c3.2-0.4,3.1,9,1,9.9
					C7,113,7.3,109.1,7.5,108C7.6,107.8,7.8,107.8,7.9,108L7.9,108z"/>
			</g>
			<polygon class="st3" points="15.5,110.2 11.5,109.2 10.2,110.2 11.5,111.2 			"/>
			<polygon class="st3" points="23.3,107.9 37.8,110.4 58.2,110.4 41.6,108.9 			"/>
		</g>
		<g>
			<path class="st1" d="M4.7,123.9l24.8-4.9l26-7.2l4.8,0.7c1.9,0.3,3.4,1.8,3.6,3.7l0.4,3.3c0.3,2.1-1,4-3.1,4.6l-2.9,0.8l-45.3,17
				L4.7,123.9z"/>
			<path class="st3" d="M64.3,116.3c-2,3-7.8,4.2-11.5,5.8c-14,6.2-39.9,16.4-41.3,16.5l1.5,3.3l45.3-17l2.9-0.8
				c2-0.6,3.3-2.5,3.1-4.6L64.3,116.3z"/>
			<path class="st3" d="M17.6,124.9c8.5-0.4,16.4-2.5,24.3-4.7C33.6,119.6,25.8,123.1,17.6,124.9z"/>
			<path class="st2" d="M16,135.9c-0.4,6.2-3,6.3-6.6,6.4c-1.9,0.1-6-1.4-7.4-2.5c-1.5-1.2-2.3-3.3-2-7.7c0.2-2.7,0.4-4.5,1.8-6.3
				c1.9-2.6,4.6-1.8,8.1-1.5c2.1,0.2,5.8,3.2,6.3,6.5C16.6,133.4,16.2,133.5,16,135.9z"/>
			<g>
				<path class="st1" d="M12.5,135.6c0.4,2.3-2,3.8-3.9,3.9c-1.4,0.2-3.1,0.3-4.4-0.7c-1.3-1-1.7-2.8-1.9-4.2
					c-0.4-2.8,0.3-6.7,3.4-7.7c4.9-1.8,10.8,4.5,5.3,8c-1.3,0.8-2.9,1.7-4.4,0.8c-1.5-1.1-1.5-3.3-0.2-4.4c0.5-0.4,2-0.8,2,0.1
					c0,0.3-0.2,0.5-0.5,0.5c-1.3,0-1.4,2-0.5,2.5c0.6,0.3,1.9-0.5,2.4-1c0.3-0.2,0.5-0.4,0.7-0.7c0.9-1.1,0.5-2-0.5-2.8
					c-2.3-1.7-5.1-0.9-5.3,2.2c-0.1,1.3,0.1,3.1,0.5,4.2c0.2,0.5,0.5,0.7,1,0.9c1.6,0.3,4.8,0.7,5.2-1.6
					C11.6,135,12.4,135.1,12.5,135.6L12.5,135.6z"/>
			</g>
			<g>
				<defs>
					<path id="SVGID_00000083089192308728075620000008726237463620165033_" d="M16,135.9c-0.4,6.2-3,6.3-6.6,6.4
						c-1.9,0.1-6-1.4-7.4-2.5c-1.5-1.2-2.3-3.3-2-7.7c0.2-2.7,0.4-4.5,1.8-6.3c1.9-2.6,4.6-1.8,8.1-1.5c2.1,0.2,5.8,3.2,6.3,6.5
						C16.6,133.4,16.2,133.5,16,135.9z"/>
				</defs>
				<clipPath id="SVGID_00000013184581680883082450000009279755526274611081_">
					<use xlink:href="#SVGID_00000083089192308728075620000008726237463620165033_"  style="overflow:visible;"/>
				</clipPath>
			</g>
			<polygon class="st3" points="17.6,122.5 8.2,124.1 8.2,125.8 9.9,124.3 			"/>
			<polygon class="st3" points="15.9,137.3 13.9,135.4 16.3,133.9 22.5,133.8 			"/>
		</g>
		<g>
			<path class="st1" d="M133.5,124.6l-28.7-4.9L81.7,114l-3.8-0.9c-1.9,0.3-3.4,1.8-3.6,3.7l-0.4,3.3c-0.3,2.1,0.1,4.2,2.1,4.7
				l3.4,1.9l16.9,7l28.9,8.8L133.5,124.6z"/>
			<path class="st3" d="M109.4,130.7l-24.1-7.1c0,0-8.6-4.1-10.5-8.3c-0.2,0.4-0.4,0.9-0.5,1.5l-0.4,3.3c-0.3,2.1,0.1,4.2,2.1,4.7
				l3.4,1.9l16.9,7l28.9,8.8l5.1-10.5C123.6,131.8,109.4,130.7,109.4,130.7z"/>
			<path class="st3" d="M120.7,125.6c-8.5-0.4-16.4-2.5-24.3-4.7C104.7,120.3,112.5,123.8,120.7,125.6z"/>
			<path class="st2" d="M122.2,136.6c0.4,6.2,3,6.3,6.6,6.4c1.9,0.1,6-1.4,7.4-2.5c1.5-1.2,2.3-3.3,2-7.7c-0.2-2.7-0.4-4.5-1.8-6.3
				c-1.9-2.6-4.6-1.8-8.1-1.5c-2.1,0.2-5.8,3.2-6.3,6.5C121.6,134.1,122.1,134.2,122.2,136.6z"/>
			<g>
				<path class="st1" d="M126.8,136.4c0.4,2.2,3.5,1.8,5.2,1.5c1.3-0.4,1.3-1.7,1.5-2.9c0.3-1.8,0.1-4.5-1.7-5.1
					c-2-0.9-6.2,1.5-3.7,3.9c0.7,0.6,2.1,1.7,2.9,1.3c0.9-0.5,0.8-2.5-0.6-2.5c-0.6-0.1-0.6-1,0-1c0.5,0,1.1,0,1.5,0.4
					c2,1.5,0.7,5.2-1.9,4.7c-1.2-0.2-2.2-0.9-3.2-1.6c-5.7-5.2,5-11.4,8.4-5.6c1.5,2.6,1.4,7.8-1,9.8c-1.3,1-3.1,0.9-4.4,0.7
					c-1.9-0.1-4.3-1.6-3.9-3.9C125.9,135.7,126.7,135.8,126.8,136.4L126.8,136.4z"/>
			</g>
			<g>
				<defs>
					<path id="SVGID_00000115479636534488079050000001297117837925698947_" d="M122.2,136.6c0.4,6.2,3,6.3,6.6,6.4
						c1.9,0.1,6-1.4,7.4-2.5c1.5-1.2,2.3-3.3,2-7.7c-0.2-2.7-0.4-4.5-1.8-6.3c-1.9-2.6-4.6-1.8-8.1-1.5c-2.1,0.2-5.8,3.2-6.3,6.5
						C121.6,134.1,122.1,134.2,122.2,136.6z"/>
				</defs>
				<clipPath id="SVGID_00000066481910510019277070000010715266163513736084_">
					<use xlink:href="#SVGID_00000115479636534488079050000001297117837925698947_"  style="overflow:visible;"/>
				</clipPath>
			</g>
			<polygon class="st3" points="120.7,123.2 130.1,124.8 130.1,126.5 128.4,125 			"/>
			<polygon class="st3" points="122.6,129.8 124.7,129 124.1,127.5 112.7,126.5 			"/>
		</g>
	</g>
</g>
</svg>
