<?xml version="1.0" encoding="utf-8"?>
<!-- Generator: Adobe Illustrator 28.1.0, SVG Export Plug-In . SVG Version: 6.00 Build 0)  -->
<svg version="1.1" id="Layer_1" xmlns="http://www.w3.org/2000/svg" xmlns:xlink="http://www.w3.org/1999/xlink" x="0px" y="0px"
	 viewBox="0 0 141.1 161.9" style="enable-background:new 0 0 141.1 161.9;" xml:space="preserve">
<style type="text/css">
	.st0{fill:#9D4A23;}
	.st1{fill:#783718;}
	.st2{fill:#CC6E46;}
	.st3{clip-path:url(#SVGID_00000109017143440742972760000017737876620085330111_);fill:#783718;}
	.st4{clip-path:url(#SVGID_00000039093270792939366450000005599130027225775518_);fill:#783718;}
</style>
<g>
	<g>
		<path class="st0" d="M123.5,103.3c6.5-1.6,5.1-5.3,5.1-7.2c0-5.9-3.1-9.4-9.4-8.2c-5.5,1-26.2,8-26.2,8s-14.2,4.1-18.1,5.7
			c-3,1.3-5.3,1.8-6.1,2.3l-2.3,5.2c0.6,6,1.5,6.6,5.3,6.3C83,114.5,108.8,107,123.5,103.3z"/>
		<path class="st1" d="M127.1,90.3c0.4,2.4-0.9,6-0.9,6s-11.1,3.7-15.7,4.2c-2.5,0.2-5,0.7-7.4,1.4c-5.8,1.7-17.1,4.9-25.7,6.4
			c-5-5.6-7-0.8-9.9-1.1l-0.9,2c0.6,6,1.5,6.6,5.3,6.3c11.1-1,37-8.5,51.7-12.2c6.5-1.6,5.1-5.3,5.1-7.2
			C128.6,93.7,128.1,91.7,127.1,90.3z"/>
		<path class="st2" d="M75.8,109.6c0,3.3-2.4,5.9-5.3,5.9s-4.7-2.6-4.7-5.9c0-1.5-0.1-2.9,0.7-3.9c1-1.2,2.4-2,4-2
			c1.5,0,2.6,0.2,3.6,1.2C75.1,106,75.8,108,75.8,109.6z"/>
		<g>
			<path class="st0" d="M67.7,109.6c-2.2-8,9.6-3.6,6.8,3.7c-0.4,1.2-1.2,2.3-2.4,3c-1.4,0.8-3.2,0-3.4-1.5
				c-0.3-1.5,0.3-4.8,2.2-4.8c0.8,0.2,0.9,1.1,1,1.7c0.1,0.3-0.4,0.4-0.5,0.1c-0.1-0.4-0.2-0.8-0.4-1.1c-0.2-0.2-0.4-0.1-0.6,0.2
				c-1.1,1.2-1.4,5.7,1.2,4.4c2.5-1.6,2.7-6,0-7.6c-0.6-0.4-1.8-0.9-2.4-0.6s-0.6,1.7-0.5,2.4C68.8,110,67.9,110.2,67.7,109.6
				L67.7,109.6z"/>
		</g>
		<polygon class="st1" points="79.7,102.6 94.2,97.1 115.6,92.4 98.9,97.5 		"/>
		<g>
			<g>
				<g>
					<defs>
						<path id="SVGID_1_" d="M123.5,103.3c6.5-1.6,5.1-5.3,5.1-7.2c0-5.9-3.1-9.4-9.4-8.2c-5.5,1-26.2,8-26.2,8s-14.2,4.1-18.1,5.7
							c-3,1.3-5.3,1.8-6.1,2.3l-2.3,5.2c0.6,6,1.5,6.6,5.3,6.3C83,114.5,108.8,107,123.5,103.3z"/>
					</defs>
					<clipPath id="SVGID_00000079483378782124126380000015721113752836003514_">
						<use xlink:href="#SVGID_1_"  style="overflow:visible;"/>
					</clipPath>
					<polygon style="clip-path:url(#SVGID_00000079483378782124126380000015721113752836003514_);fill:#783718;" points="
						127.4,91.1 116.7,94.6 126.9,93 131.7,89.6 					"/>
				</g>
			</g>
		</g>
	</g>
	<g>
		<path class="st0" d="M11.3,104.1c-6.5-1.6-5.1-5.3-5.1-7.2c0-5.9,3.1-9.4,9.4-8.2c5.5,1,26.2,8,26.2,8s14.2,4.1,18.1,5.7
			c3,1.3,5.3,1.8,6.1,2.3l2.3,5.2c-0.6,6-1.5,6.6-5.3,6.3C51.9,115.3,26,107.8,11.3,104.1z"/>
		<path class="st1" d="M7.7,91.1c-0.4,2.4,0.9,6,0.9,6s11.1,3.7,15.7,4.2c2.5,0.2,5,0.7,7.4,1.4c5.8,1.7,17.1,4.9,25.7,6.4
			c5-5.6,7-0.8,9.9-1.1l0.9,2c-0.6,6-1.5,6.6-5.3,6.3c-11.1-1-37-8.5-51.7-12.2c-6.5-1.6-5.1-5.3-5.1-7.2
			C6.2,94.5,6.7,92.5,7.7,91.1z"/>
		<path class="st2" d="M59,110.4c0,3.3,2.4,5.9,5.3,5.9s4.7-2.6,4.7-5.9c0-1.5,0.1-2.9-0.7-3.9c-1-1.2-2.4-2-4-2
			c-1.5,0-2.6,0.2-3.6,1.2C59.7,106.8,59,108.7,59,110.4z"/>
		<g>
			<path class="st0" d="M66.1,110.2c0-0.7,0-2.1-0.5-2.4c-1.7-0.3-3.6,1.3-4.1,2.9c-0.5,1.8,0.1,4.3,1.7,5.3
				c0.8,0.5,1.7,0.2,1.9-0.7c0.2-1.2,0.1-2.7-0.7-3.7c-0.7-0.7-0.9,0.4-1,0.9c0,0.1-0.2,0.2-0.3,0.2c-0.4-0.1-0.1-0.9,0-1.2
				c0.1-0.4,0.4-0.7,0.8-0.8c1.9,0,2.6,3.3,2.2,4.8c-0.2,1.6-2.1,2.3-3.4,1.5c-2.4-1.3-3.2-4.2-2.6-6.7c0.6-2.4,3.8-5.1,6.3-3.8
				c1.3,0.9,1.1,2.7,0.7,3.9C66.9,111,66.1,110.8,66.1,110.2L66.1,110.2z"/>
		</g>
		<polygon class="st1" points="55.1,103.4 40.6,97.9 19.2,93.2 35.9,98.3 		"/>
		<g>
			<g>
				<g>
					<defs>
						<path id="SVGID_00000085971326524377364000000001806761925085237148_" d="M11.3,104.1c-6.5-1.6-5.1-5.3-5.1-7.2
							c0-5.9,3.1-9.4,9.4-8.2c5.5,1,26.2,8,26.2,8s14.2,4.1,18.1,5.7c3,1.3,5.3,1.8,6.1,2.3l2.3,5.2c-0.6,6-1.5,6.6-5.3,6.3
							C51.9,115.3,26,107.8,11.3,104.1z"/>
					</defs>
					<clipPath id="SVGID_00000101078841624379422970000014838840340668181935_">
						<use xlink:href="#SVGID_00000085971326524377364000000001806761925085237148_"  style="overflow:visible;"/>
					</clipPath>
					<polygon style="clip-path:url(#SVGID_00000101078841624379422970000014838840340668181935_);fill:#783718;" points="7.5,91.9 
						18.1,95.3 7.9,93.8 3.1,90.3 					"/>
				</g>
			</g>
		</g>
	</g>
	<g>
		<path class="st0" d="M4.7,123.9l24.8-4.9l26-7.2l4.8,0.7c1.9,0.3,3.4,1.8,3.6,3.7l0.4,3.3c0.3,2.1-1,4-3.1,4.6l-2.9,0.8l-45.3,17
			L4.7,123.9z"/>
		<path class="st1" d="M64.3,116.3c-2,3-7.8,4.2-11.5,5.8c-14,6.2-39.9,16.4-41.3,16.5l1.5,3.3l45.3-17l2.9-0.8
			c2-0.6,3.3-2.5,3.1-4.6V116.3z"/>
		<path class="st1" d="M17.6,124.9c8.5-0.4,16.4-2.5,24.3-4.7C33.6,119.6,25.8,123.1,17.6,124.9z"/>
		<path class="st2" d="M16,135.9c-0.4,6.2-3,6.3-6.6,6.4c-1.9,0.1-6-1.4-7.4-2.5c-1.5-1.2-2.3-3.3-2-7.7c0.2-2.7,0.4-4.5,1.8-6.3
			c1.9-2.6,4.6-1.8,8.1-1.5c2.1,0.2,5.8,3.2,6.3,6.5C16.6,133.4,16.2,133.5,16,135.9z"/>
		<g>
			<path class="st0" d="M12.5,135.6c0.4,2.3-2,3.8-3.9,3.9c-1.4,0.2-3.1,0.3-4.4-0.7s-1.7-2.8-1.9-4.2c-0.4-2.8,0.3-6.7,3.4-7.7
				c4.9-1.8,10.8,4.5,5.3,8c-1.3,0.8-2.9,1.7-4.4,0.8c-1.5-1.1-1.5-3.3-0.2-4.4c0.5-0.4,2-0.8,2,0.1c0,0.3-0.2,0.5-0.5,0.5
				c-1.3,0-1.4,2-0.5,2.5c0.6,0.3,1.9-0.5,2.4-1c0.3-0.2,0.5-0.4,0.7-0.7c0.9-1.1,0.5-2-0.5-2.8c-2.3-1.7-5.1-0.9-5.3,2.2
				c-0.1,1.3,0.1,3.1,0.5,4.2c0.2,0.5,0.5,0.7,1,0.9c1.6,0.3,4.8,0.7,5.2-1.6C11.6,135,12.4,135.1,12.5,135.6L12.5,135.6z"/>
		</g>
		<polygon class="st1" points="17.6,122.5 8.2,124.1 8.2,125.8 9.9,124.3 		"/>
		<polygon class="st1" points="15.9,137.3 13.9,135.4 16.3,133.9 22.5,133.8 		"/>
	</g>
	<g>
		<path class="st0" d="M133.5,124.6l-28.7-4.9L81.7,114l-3.8-0.9c-1.9,0.3-3.4,1.8-3.6,3.7l-0.4,3.3c-0.3,2.1,0.1,4.2,2.1,4.7
			l3.4,1.9l16.9,7l28.9,8.8L133.5,124.6z"/>
		<path class="st1" d="M109.4,130.7l-24.1-7.1c0,0-8.6-4.1-10.5-8.3c-0.2,0.4-0.4,0.9-0.5,1.5l-0.4,3.3c-0.3,2.1,0.1,4.2,2.1,4.7
			l3.4,1.9l16.9,7l28.9,8.8l5.1-10.5C123.6,131.8,109.4,130.7,109.4,130.7z"/>
		<path class="st1" d="M120.7,125.6c-8.5-0.4-16.4-2.5-24.3-4.7C104.7,120.3,112.5,123.8,120.7,125.6z"/>
		<path class="st2" d="M122.2,136.6c0.4,6.2,3,6.3,6.6,6.4c1.9,0.1,6-1.4,7.4-2.5c1.5-1.2,2.3-3.3,2-7.7c-0.2-2.7-0.4-4.5-1.8-6.3
			c-1.9-2.6-4.6-1.8-8.1-1.5c-2.1,0.2-5.8,3.2-6.3,6.5C121.6,134.1,122.1,134.2,122.2,136.6z"/>
		<g>
			<path class="st0" d="M126.8,136.4c0.4,2.2,3.5,1.8,5.2,1.5c1.3-0.4,1.3-1.7,1.5-2.9c0.3-1.8,0.1-4.5-1.7-5.1
				c-2-0.9-6.2,1.5-3.7,3.9c0.7,0.6,2.1,1.7,2.9,1.3c0.9-0.5,0.8-2.5-0.6-2.5c-0.6-0.1-0.6-1,0-1c0.5,0,1.1,0,1.5,0.4
				c2,1.5,0.7,5.2-1.9,4.7c-1.2-0.2-2.2-0.9-3.2-1.6c-5.7-5.2,5-11.4,8.4-5.6c1.5,2.6,1.4,7.8-1,9.8c-1.3,1-3.1,0.9-4.4,0.7
				c-1.9-0.1-4.3-1.6-3.9-3.9C125.9,135.7,126.7,135.8,126.8,136.4L126.8,136.4z"/>
		</g>
		<polygon class="st1" points="120.7,123.2 130.1,124.8 130.1,126.5 128.4,125 		"/>
		<polygon class="st1" points="122.6,129.8 124.7,129 124.1,127.5 112.7,126.5 		"/>
	</g>
</g>
</svg>
