<?xml version="1.0" encoding="utf-8"?>
<!-- Generator: Adobe Illustrator 28.1.0, SVG Export Plug-In . SVG Version: 6.00 Build 0)  -->
<svg version="1.1" id="Layer_1" xmlns="http://www.w3.org/2000/svg" xmlns:xlink="http://www.w3.org/1999/xlink" x="0px" y="0px"
	 viewBox="0 0 141.1 161.9" style="enable-background:new 0 0 141.1 161.9;" xml:space="preserve">
<style type="text/css">
	.st0{opacity:0.26;fill:#FFE6AE;enable-background:new    ;}
</style>
<g>
	<path class="st0" d="M70.2,107.7c0,0-7.9-9.6-1.9-17.4c5.9-7.8-11.3-11.7-2.4-17.5c11.6-7.6,10.6-14.9,3.5-23.2
		c0,0,21.9,12.5,4.5,26.3c-9.1,7.3,6.9,9.7-1.6,16.6C63.8,99.3,70.2,107.7,70.2,107.7z"/>
</g>
<path class="st0" d="M68.1,43.8c0,0-4.8-3.2-2.6-8.3c2.2-5.2-0.5-7.2-0.5-7.2s4.4,4.3,2.8,8.8C66.2,41.7,68.1,43.8,68.1,43.8z"/>
</svg>
