<?xml version="1.0" encoding="utf-8"?>
<!-- Generator: Adobe Illustrator 28.1.0, SVG Export Plug-In . SVG Version: 6.00 Build 0)  -->
<svg version="1.1" id="Layer_1" xmlns="http://www.w3.org/2000/svg" xmlns:xlink="http://www.w3.org/1999/xlink" x="0px" y="0px"
	 viewBox="0 0 141.1 161.9" style="enable-background:new 0 0 141.1 161.9;" xml:space="preserve">
<style type="text/css">
	.st0{opacity:5.000000e-02;fill:#FFE6AE;enable-background:new    ;}
	.st1{opacity:0.12;fill:#FFE6AE;enable-background:new    ;}
	.st2{fill:#F58134;}
	.st3{fill:#FFDA82;}
</style>
<g>
	<ellipse class="st0" cx="67.5" cy="62.5" rx="57.3" ry="57.3"/>
	<ellipse class="st1" cx="67.5" cy="62.5" rx="34.3" ry="34.3"/>
</g>
<g>
	<path class="st2" d="M110.5,87.7c-6.3-1.3-10.1-2.1-14.2,3.4c13.8-15,0-33.7,0-33.7c-3.5,14.2-12.5,20.9-9.4,10.8
		c7.5-24.5-21.1-32.5-10.6-52.8c-25,17-5.9,22.4-16.3,37.7c-4.3,6.4-3.9,20.7-4.3,22.6C54,64.8,42,69.1,40.8,51.1
		c-6.2,9.4-0.9,21.2,0,22.8c4.4,8.4,1.2,10,1.6,19.3c0.2,5.9,1.2,11.7,6.1,15.5c5.4,4.2,12.9,5.4,19.6,5.5c9.3,0.1,24.6-1.3,32.2-9
		C103.3,102.2,103.7,88.5,110.5,87.7z"/>
	<path class="st2" d="M44.5,48.1c-2.4-5.2-2.4-9.3,6.2-14C50.7,34.1,44.6,38.8,44.5,48.1z"/>
	<path class="st2" d="M88.9,0c0,0-0.2,5.5-5.1,11.8c-3.5,4.5-1.8,9.7,2.5,15c0,0-3.3-9.8,0.4-13.5C91.2,8.9,88.9,0,88.9,0z"/>
	<path class="st3" d="M88,97.4c1.6-4.7,1.4-11.1,1-15.7c-1.5,4.5-4.1,4.6-8.5,10.1c0.7-2.6,2.7-6.4,3.2-10.5
		c0.6-4.6,0.2-12.8-2.3-18.1c-5.1-10.6-12-18.4-10.6-27.3c-4.7,11.9,0,12.7,0,24.2c0,8.6-10.9,13-10.2,30.9
		C59,75.1,49.8,82,47.1,73.5c-2.3,5.4,5.6,9.2,3.5,17.6c-2.1,8.2-0.4,15.1,5.2,18.6c3.3,2.1,8,2.6,11.9,2.9c2.9,0.2,6.2,0.4,9.1,0
		c4.7-0.7,12.4-2.6,14.9-5.3c3.9-4.4,1.2-10.3,3.2-13.4C94.1,94,90.8,94.7,88,97.4z"/>
</g>
</svg>
