<?xml version="1.0" encoding="utf-8"?>
<!-- Generator: Adobe Illustrator 28.1.0, SVG Export Plug-In . SVG Version: 6.00 Build 0)  -->
<svg version="1.1" id="Layer_1" xmlns="http://www.w3.org/2000/svg" xmlns:xlink="http://www.w3.org/1999/xlink" x="0px" y="0px"
	 viewBox="0 0 141.1 161.9" style="enable-background:new 0 0 141.1 161.9;" xml:space="preserve">
<style type="text/css">
	.st0{fill:#F58134;}
	.st1{fill:#FFDA82;}
</style>
<g>
	<path class="st0" d="M83.4,104.1c-0.4,1.7-1.5,2.5-4.2,3.8c2.5-6.6-1.2-14.2-1.2-14.2c-0.6,9.3-6.6,11.5-7.3,4.3
		c-0.9-10.8-11.8-13.7-11.8-13.7c2.7,3.5,3.1,8,2.3,12.2c-0.3,1.8-0.9,3.7-1.5,5.4c-0.5,1.3-0.9,2.8-1,4.2c-0.1,2,0.6,3.9,2.2,5.2
		c2.7,2.2,6.3,2.8,9.7,2.8s7.3-0.4,10-2.5C83,109.8,83.7,107.1,83.4,104.1z"/>
	<path class="st1" d="M76.9,109.6c1.1-2.8,1.8-6.3,1.2-8.4c-0.2,2.1-2,7.2-6.7,4.6c-2.5-1.3-5.3,3-6.8,2.4c4.7-5-0.4-16.6-0.4-16.6
		c0.4,0.7,0.1,7.4,0,8c-0.7-2-1.6-7.3-3.2-10.7c0.6,2.4,0.6,5,0.1,7.4c-0.3,1.8-0.9,3.7-1.5,5.4c-0.5,1.3-0.9,2.8-1,4.2
		c-0.1,1.4,0.2,2.7,1,3.8c0.2,0.2,0.3,0.5,0.5,0.7l0.1,0.1c0.2,0.2,0.4,0.4,0.6,0.6c0.4,0.3,0.8,0.6,1.2,0.8
		c0.1,0.1,0.2,0.1,0.3,0.2c0.3,0.2,0.6,0.3,1,0.5c0.1,0,0.2,0.1,0.3,0.1c0.4,0.1,0.7,0.3,1.1,0.4c0.1,0,0.1,0,0.2,0.1
		c0.5,0.1,0.9,0.2,1.4,0.3c1.4,0.3,2.8,0.4,4.2,0.4h0.2c0.5,0,1,0,1.5-0.1c1.8-0.1,3.4-0.5,5.1-1.2c2.1-0.9,3.9-2.5,3.7-4.6
		C80.7,109.4,78.8,108.7,76.9,109.6L76.9,109.6z"/>
</g>
</svg>
